<svg width="622" height="595" viewBox="0 0 622 595" fill="none" xmlns="http://www.w3.org/2000/svg">
<path fill-rule="evenodd" clip-rule="evenodd" d="M274.616 548.138L287.729 561.217C297.96 571.421 314.547 571.421 324.778 561.217L425.103 461.154C435.334 450.949 435.334 434.405 425.103 424.201L411.99 411.122C401.76 400.918 385.172 400.918 374.941 411.122L274.616 511.185C264.385 521.39 264.385 537.934 274.616 548.138ZM269.204 579.694C289.666 600.102 322.841 600.102 343.303 579.694L443.628 479.63C464.09 459.222 464.09 426.133 443.628 405.724L430.515 392.645C410.053 372.237 376.878 372.237 356.416 392.646L256.091 492.709C235.629 513.117 235.629 546.206 256.091 566.615L269.204 579.694Z" fill="#D2D2D2"/>
<path d="M443.84 405.957C464.302 426.366 464.302 459.454 443.84 479.863L430.727 492.942C410.265 513.35 377.09 513.35 356.628 492.942L268.513 405.056C248.051 384.648 248.051 351.559 268.513 331.15L281.626 318.071C302.087 297.663 335.263 297.663 355.725 318.071L443.84 405.957Z" fill="#E19840"/>
<path d="M102.558 361.343C82.0966 381.751 48.9213 381.751 28.4594 361.343L15.3464 348.264C-5.11545 327.855 -5.11548 294.767 15.3464 274.358L274.795 15.5858C295.257 -4.8227 328.432 -4.82273 348.894 15.5858L362.007 28.6646C382.469 49.0731 382.469 82.1619 362.007 102.57L102.558 361.343Z" fill="#E19840"/>
<path fill-rule="evenodd" clip-rule="evenodd" d="M575.016 341.09L588.129 328.012C598.36 317.807 598.36 301.263 588.129 291.059L330.18 33.7828C319.95 23.5786 303.362 23.5786 293.131 33.7828L280.018 46.8617C269.787 57.0659 269.787 73.6103 280.018 83.8146L537.966 341.09C548.197 351.295 564.785 351.295 575.016 341.09ZM606.654 346.488C627.115 326.079 627.115 292.991 606.654 272.582L348.705 15.3064C328.243 -5.10214 295.068 -5.10211 274.606 15.3064L261.493 28.3852C241.031 48.7937 241.031 81.8825 261.493 102.291L519.442 359.567C539.904 379.975 573.079 379.975 593.541 359.567L606.654 346.488Z" fill="#D2D2D2"/>
<path d="M606.646 272.576C627.108 292.985 627.108 326.073 606.646 346.482L593.533 359.561C573.071 379.969 539.896 379.969 519.434 359.561L491.557 331.756C471.095 311.348 471.095 278.259 491.557 257.85L504.67 244.771C525.131 224.363 558.307 224.363 578.769 244.771L606.646 272.576Z" fill="#E19840"/>
</svg>
