<svg width="120" height="120" viewBox="0 0 120 120" fill="none" xmlns="http://www.w3.org/2000/svg">
<path fill-rule="evenodd" clip-rule="evenodd" d="M105 7.5H15C10.8579 7.5 7.5 10.8579 7.5 15V105C7.5 109.142 10.8579 112.5 15 112.5H105C109.142 112.5 112.5 109.142 112.5 105V15C112.5 10.8579 109.142 7.5 105 7.5ZM15 0C6.71573 0 0 6.71573 0 15V105C0 113.284 6.71573 120 15 120H105C113.284 120 120 113.284 120 105V15C120 6.71573 113.284 0 105 0H15Z" fill="#162A64"/>
<path d="M28.3826 66.198C27.9026 66.198 27.3986 66.162 26.8706 66.09C26.3546 66.03 25.8626 65.934 25.3946 65.802C24.9266 65.67 24.5066 65.514 24.1346 65.334C23.8106 65.178 23.5826 64.974 23.4506 64.722C23.3186 64.458 23.2706 64.182 23.3066 63.894C23.3426 63.606 23.4446 63.354 23.6126 63.138C23.7806 62.91 24.0026 62.76 24.2786 62.688C24.5546 62.604 24.8666 62.64 25.2146 62.796C25.6706 63.012 26.1866 63.18 26.7626 63.3C27.3386 63.42 27.8786 63.48 28.3826 63.48C29.1746 63.48 29.7266 63.378 30.0386 63.174C30.3626 62.958 30.5246 62.694 30.5246 62.382C30.5246 62.106 30.4106 61.884 30.1826 61.716C29.9666 61.548 29.5766 61.404 29.0126 61.284L26.9066 60.834C25.7546 60.594 24.8966 60.174 24.3326 59.574C23.7686 58.974 23.4866 58.2 23.4866 57.252C23.4866 56.628 23.6126 56.064 23.8646 55.56C24.1286 55.044 24.4946 54.606 24.9626 54.246C25.4426 53.886 26.0066 53.61 26.6546 53.418C27.3146 53.214 28.0466 53.112 28.8506 53.112C29.4746 53.112 30.1047 53.184 30.7407 53.328C31.3887 53.46 31.9466 53.664 32.4146 53.94C32.6906 54.084 32.8886 54.282 33.0086 54.534C33.1286 54.786 33.1767 55.05 33.1526 55.326C33.1287 55.59 33.0327 55.824 32.8647 56.028C32.7087 56.232 32.4926 56.37 32.2166 56.442C31.9526 56.502 31.6346 56.454 31.2626 56.298C30.9146 56.142 30.5186 56.028 30.0746 55.956C29.6426 55.872 29.2226 55.83 28.8146 55.83C28.3706 55.83 27.9926 55.884 27.6806 55.992C27.3686 56.088 27.1286 56.232 26.9606 56.424C26.8046 56.616 26.7266 56.838 26.7266 57.09C26.7266 57.342 26.8286 57.558 27.0326 57.738C27.2487 57.906 27.6386 58.05 28.2026 58.17L30.2906 58.62C31.4546 58.872 32.3246 59.286 32.9006 59.862C33.4766 60.438 33.7646 61.188 33.7646 62.112C33.7646 62.736 33.6386 63.3 33.3867 63.804C33.1346 64.308 32.7746 64.74 32.3066 65.1C31.8386 65.448 31.2746 65.718 30.6146 65.91C29.9546 66.102 29.2106 66.198 28.3826 66.198Z" fill="#162A64"/>
<path d="M35.8446 66.162C35.4726 66.162 35.1606 66.078 34.9086 65.91C34.6566 65.73 34.5006 65.49 34.4406 65.19C34.3806 64.878 34.4346 64.53 34.6026 64.146L39.0846 54.498C39.3006 54.03 39.5646 53.688 39.8766 53.472C40.2006 53.256 40.5666 53.148 40.9746 53.148C41.3826 53.148 41.7366 53.256 42.0366 53.472C42.3486 53.688 42.6186 54.03 42.8466 54.498L47.3286 64.146C47.5206 64.53 47.5866 64.878 47.5266 65.19C47.4786 65.502 47.3286 65.742 47.0766 65.91C46.8366 66.078 46.5366 66.162 46.1766 66.162C45.6966 66.162 45.3246 66.054 45.0606 65.838C44.8086 65.622 44.5806 65.274 44.3766 64.794L43.4046 62.508L44.6646 63.426H37.2486L38.5266 62.508L37.5546 64.794C37.3386 65.274 37.1166 65.622 36.8886 65.838C36.6606 66.054 36.3126 66.162 35.8446 66.162ZM40.9386 56.766L38.8506 61.752L38.3466 60.888H43.5846L43.0806 61.752L40.9746 56.766H40.9386Z" fill="#162A64"/>
<path d="M50.5091 66.162C50.0291 66.162 49.6571 66.03 49.3931 65.766C49.1411 65.502 49.0151 65.13 49.0151 64.65V54.66C49.0151 54.168 49.1531 53.796 49.4291 53.544C49.7051 53.28 50.0951 53.148 50.5991 53.148C51.0191 53.148 51.3491 53.232 51.5891 53.4C51.8411 53.556 52.0691 53.82 52.2731 54.192L56.1431 61.14H55.5131L59.3652 54.192C59.5812 53.82 59.8091 53.556 60.0491 53.4C60.3011 53.232 60.6371 53.148 61.0571 53.148C61.5371 53.148 61.9032 53.28 62.1552 53.544C62.4192 53.796 62.5512 54.168 62.5512 54.66V64.65C62.5512 65.13 62.4251 65.502 62.1731 65.766C61.9211 66.03 61.5491 66.162 61.0571 66.162C60.5771 66.162 60.2051 66.03 59.9411 65.766C59.6891 65.502 59.5632 65.13 59.5632 64.65V58.458H59.9411L57.0431 63.498C56.8751 63.762 56.6951 63.96 56.5031 64.092C56.3231 64.224 56.0771 64.29 55.7651 64.29C55.4651 64.29 55.2191 64.224 55.0271 64.092C54.8351 63.96 54.6611 63.762 54.5051 63.498L51.5891 58.44H52.0031V64.65C52.0031 65.13 51.8772 65.502 51.6252 65.766C51.3732 66.03 51.0011 66.162 50.5091 66.162Z" fill="#162A64"/>
<path d="M66.5434 66.162C66.0154 66.162 65.6074 66.018 65.3194 65.73C65.0314 65.43 64.8874 65.016 64.8874 64.488V54.984C64.8874 54.444 65.0314 54.03 65.3194 53.742C65.6194 53.454 66.0333 53.31 66.5613 53.31H70.9893C72.4293 53.31 73.5394 53.682 74.3194 54.426C75.1114 55.158 75.5074 56.172 75.5074 57.468C75.5074 58.764 75.1114 59.784 74.3194 60.528C73.5394 61.26 72.4293 61.626 70.9893 61.626H68.1994V64.488C68.1994 65.016 68.0614 65.43 67.7854 65.73C67.5094 66.018 67.0954 66.162 66.5434 66.162ZM68.1994 59.088H70.4134C71.0374 59.088 71.5173 58.956 71.8533 58.692C72.1893 58.416 72.3574 58.008 72.3574 57.468C72.3574 56.916 72.1893 56.508 71.8533 56.244C71.5173 55.98 71.0374 55.848 70.4134 55.848H68.1994V59.088Z" fill="#162A64"/>
<path d="M78.7254 66C78.1974 66 77.7834 65.856 77.4834 65.568C77.1954 65.268 77.0514 64.854 77.0514 64.326V54.966C77.0514 54.426 77.1954 54.012 77.4834 53.724C77.7714 53.436 78.1794 53.292 78.7074 53.292C79.2474 53.292 79.6554 53.436 79.9314 53.724C80.2194 54.012 80.3634 54.426 80.3634 54.966V63.246H84.7554C85.2114 63.246 85.5594 63.366 85.7994 63.606C86.0514 63.834 86.1774 64.17 86.1774 64.614C86.1774 65.058 86.0514 65.4 85.7994 65.64C85.5594 65.88 85.2114 66 84.7554 66H78.7254Z" fill="#162A64"/>
<path d="M89.3087 66C88.7447 66 88.3127 65.856 88.0127 65.568C87.7247 65.268 87.5807 64.842 87.5807 64.29V55.02C87.5807 54.468 87.7247 54.048 88.0127 53.76C88.3127 53.46 88.7447 53.31 89.3087 53.31H95.4107C95.8427 53.31 96.1667 53.418 96.3827 53.634C96.5987 53.85 96.7067 54.162 96.7067 54.57C96.7067 54.99 96.5987 55.314 96.3827 55.542C96.1667 55.758 95.8427 55.866 95.4107 55.866H90.7487V58.278H95.0147C95.4347 58.278 95.7527 58.386 95.9687 58.602C96.1967 58.818 96.3107 59.136 96.3107 59.556C96.3107 59.976 96.1967 60.294 95.9687 60.51C95.7527 60.726 95.4347 60.834 95.0147 60.834H90.7487V63.444H95.4107C95.8427 63.444 96.1667 63.558 96.3827 63.786C96.5987 64.002 96.7067 64.314 96.7067 64.722C96.7067 65.142 96.5987 65.46 96.3827 65.676C96.1667 65.892 95.8427 66 95.4107 66H89.3087Z" fill="#162A64"/>
<path d="M22.5 43.5C22.5 42.6716 23.1716 42 24 42H96C96.8284 42 97.5 42.6716 97.5 43.5C97.5 44.3284 96.8284 45 96 45H24C23.1716 45 22.5 44.3284 22.5 43.5Z" fill="#162A64"/>
<path d="M22.5 76.5C22.5 75.6716 23.1716 75 24 75H96C96.8284 75 97.5 75.6716 97.5 76.5C97.5 77.3284 96.8284 78 96 78H24C23.1716 78 22.5 77.3284 22.5 76.5Z" fill="#162A64"/>
</svg>
