<svg width="120" height="120" viewBox="0 0 120 120" fill="none" xmlns="http://www.w3.org/2000/svg">
<path fill-rule="evenodd" clip-rule="evenodd" d="M105 7.5H15C10.8579 7.5 7.5 10.8579 7.5 15V105C7.5 109.142 10.8579 112.5 15 112.5H105C109.142 112.5 112.5 109.142 112.5 105V15C112.5 10.8579 109.142 7.5 105 7.5ZM15 0C6.71573 0 0 6.71573 0 15V105C0 113.284 6.71573 120 15 120H105C113.284 120 120 113.284 120 105V15C120 6.71573 113.284 0 105 0H15Z" fill="#162A64"/>
<path d="M22.5 61.5C22.5 60.6716 23.1716 60 24 60H29.5458C29.842 60 30.1315 59.9123 30.3779 59.7481L40.4179 53.0547C40.9218 52.7188 41.5782 52.7188 42.0821 53.0547L51.5874 59.3916C52.1309 59.7539 52.8464 59.7229 53.3565 59.3148L70.28 45.776C70.8427 45.3258 71.646 45.3395 72.1932 45.8085L96.9762 67.051C97.3087 67.336 97.5 67.752 97.5 68.1899V90.75C97.5 94.0637 94.8137 96.75 91.5 96.75H28.5C25.1863 96.75 22.5 94.0637 22.5 90.75V61.5Z" fill="#162A64"/>
<path d="M37.5 30C37.5 34.1421 34.1421 37.5 30 37.5C25.8579 37.5 22.5 34.1421 22.5 30C22.5 25.8579 25.8579 22.5 30 22.5C34.1421 22.5 37.5 25.8579 37.5 30Z" fill="#162A64"/>
</svg>
