<svg width="120" height="120" viewBox="0 0 120 120" fill="none" xmlns="http://www.w3.org/2000/svg">
<path fill-rule="evenodd" clip-rule="evenodd" d="M105 7.5H15C10.8579 7.5 7.5 10.8579 7.5 15V105C7.5 109.142 10.8579 112.5 15 112.5H105C109.142 112.5 112.5 109.142 112.5 105V15C112.5 10.8579 109.142 7.5 105 7.5ZM15 0C6.71573 0 0 6.71573 0 15V105C0 113.284 6.71573 120 15 120H105C113.284 120 120 113.284 120 105V15C120 6.71573 113.284 0 105 0H15Z" fill="#162A64"/>
<path d="M22.5 25.5C22.5 23.8431 23.8431 22.5 25.5 22.5H34.5C36.1569 22.5 37.5 23.8431 37.5 25.5V34.5C37.5 36.1569 36.1569 37.5 34.5 37.5H25.5C23.8431 37.5 22.5 36.1569 22.5 34.5V25.5Z" fill="#162A64"/>
<path d="M22.5 48C22.5 46.3431 23.8431 45 25.5 45H34.5C36.1569 45 37.5 46.3431 37.5 48V94.5C37.5 96.1569 36.1569 97.5 34.5 97.5H25.5C23.8431 97.5 22.5 96.1569 22.5 94.5V48Z" fill="#162A64"/>
<path d="M45 25.5C45 23.8431 46.3431 22.5 48 22.5H94.5C96.1569 22.5 97.5 23.8431 97.5 25.5V34.5C97.5 36.1569 96.1569 37.5 94.5 37.5H48C46.3431 37.5 45 36.1569 45 34.5V25.5Z" fill="#162A64"/>
<path d="M45 48C45 46.3431 46.3431 45 48 45H94.5C96.1569 45 97.5 46.3431 97.5 48V94.5C97.5 96.1569 96.1569 97.5 94.5 97.5H48C46.3431 97.5 45 96.1569 45 94.5V48Z" fill="#162A64"/>
</svg>
