<svg width="120" height="120" viewBox="0 0 120 120" fill="none" xmlns="http://www.w3.org/2000/svg">
<path fill-rule="evenodd" clip-rule="evenodd" d="M105 7.5H15C10.8579 7.5 7.5 10.8579 7.5 15V105C7.5 109.142 10.8579 112.5 15 112.5H105C109.142 112.5 112.5 109.142 112.5 105V15C112.5 10.8579 109.142 7.5 105 7.5ZM15 0C6.71573 0 0 6.71573 0 15V105C0 113.284 6.71573 120 15 120H105C113.284 120 120 113.284 120 105V15C120 6.71573 113.284 0 105 0H15Z" fill="#162A64"/>
<path d="M32.6925 72.4125C31.6925 72.4125 30.6425 72.3375 29.5425 72.1875C28.4675 72.0625 27.4425 71.8625 26.4675 71.5875C25.4925 71.3125 24.6175 70.9875 23.8425 70.6125C23.1675 70.2875 22.6925 69.8625 22.4175 69.3375C22.1425 68.7875 22.0425 68.2125 22.1175 67.6125C22.1925 67.0125 22.405 66.4875 22.755 66.0375C23.105 65.5625 23.5675 65.25 24.1425 65.1C24.7175 64.925 25.3675 65 26.0925 65.325C27.0425 65.775 28.1175 66.125 29.3175 66.375C30.5175 66.625 31.6425 66.75 32.6925 66.75C34.3425 66.75 35.4925 66.5375 36.1425 66.1125C36.8175 65.6625 37.155 65.1125 37.155 64.4625C37.155 63.8875 36.9175 63.425 36.4425 63.075C35.9925 62.725 35.18 62.425 34.005 62.175L29.6175 61.2375C27.2175 60.7375 25.43 59.8625 24.255 58.6125C23.08 57.3625 22.4925 55.75 22.4925 53.775C22.4925 52.475 22.755 51.3 23.28 50.25C23.83 49.175 24.5925 48.2625 25.5675 47.5125C26.5675 46.7625 27.7425 46.1875 29.0925 45.7875C30.4675 45.3625 31.9925 45.15 33.6675 45.15C34.9675 45.15 36.28 45.3 37.605 45.6C38.955 45.875 40.1175 46.3 41.0925 46.875C41.6675 47.175 42.08 47.5875 42.33 48.1125C42.58 48.6375 42.68 49.1875 42.63 49.7625C42.58 50.3125 42.38 50.8 42.03 51.225C41.705 51.65 41.255 51.9375 40.68 52.0875C40.13 52.2125 39.4675 52.1125 38.6925 51.7875C37.9675 51.4625 37.1425 51.225 36.2175 51.075C35.3175 50.9 34.4425 50.8125 33.5925 50.8125C32.6675 50.8125 31.88 50.925 31.23 51.15C30.58 51.35 30.08 51.65 29.73 52.05C29.405 52.45 29.2425 52.9125 29.2425 53.4375C29.2425 53.9625 29.455 54.4125 29.88 54.7875C30.33 55.1375 31.1425 55.4375 32.3175 55.6875L36.6675 56.625C39.0925 57.15 40.905 58.0125 42.105 59.2125C43.305 60.4125 43.905 61.975 43.905 63.9C43.905 65.2 43.6425 66.375 43.1175 67.425C42.5925 68.475 41.8425 69.375 40.8675 70.125C39.8925 70.85 38.7175 71.4125 37.3425 71.8125C35.9675 72.2125 34.4175 72.4125 32.6925 72.4125Z" fill="#162A64"/>
<path d="M58.3311 72.3375C57.3811 72.3375 56.6061 72.1375 56.0061 71.7375C55.4311 71.3375 54.9436 70.7 54.5436 69.825L45.4686 49.8C45.0686 48.925 44.9436 48.1375 45.0936 47.4375C45.2436 46.7375 45.5936 46.2 46.1436 45.825C46.6936 45.425 47.3811 45.225 48.2061 45.225C49.2311 45.225 49.9936 45.45 50.4936 45.9C51.0186 46.35 51.4686 47.0125 51.8436 47.8875L59.4936 65.5875H57.3936L65.0436 47.85C65.4186 46.975 65.8686 46.325 66.3936 45.9C66.9186 45.45 67.6561 45.225 68.6061 45.225C69.3811 45.225 70.0311 45.425 70.5561 45.825C71.0811 46.2 71.4061 46.7375 71.5311 47.4375C71.6811 48.1375 71.5561 48.925 71.1561 49.8L62.0436 69.825C61.6686 70.7 61.1936 71.3375 60.6186 71.7375C60.0436 72.1375 59.2811 72.3375 58.3311 72.3375Z" fill="#162A64"/>
<path d="M87.4173 72.4125C84.3923 72.4125 81.8173 71.85 79.6923 70.725C77.5923 69.6 75.9923 68.025 74.8923 66C73.7923 63.975 73.2423 61.6125 73.2423 58.9125C73.2423 56.8125 73.5673 54.925 74.2173 53.25C74.8923 51.55 75.8548 50.1 77.1048 48.9C78.3548 47.675 79.8798 46.75 81.6798 46.125C83.5048 45.475 85.5673 45.15 87.8673 45.15C89.1173 45.15 90.3923 45.275 91.6923 45.525C92.9923 45.75 94.2673 46.1875 95.5173 46.8375C96.1673 47.1375 96.6048 47.5625 96.8298 48.1125C97.0798 48.6375 97.1548 49.2 97.0548 49.8C96.9798 50.375 96.7673 50.9125 96.4173 51.4125C96.0923 51.8875 95.6423 52.2125 95.0673 52.3875C94.4923 52.5375 93.8423 52.45 93.1173 52.125C92.3673 51.775 91.5548 51.5125 90.6798 51.3375C89.8048 51.1375 88.8798 51.0375 87.9048 51.0375C86.2298 51.0375 84.8298 51.3375 83.7048 51.9375C82.6048 52.5375 81.7798 53.425 81.2298 54.6C80.6798 55.775 80.4048 57.2125 80.4048 58.9125C80.4048 61.4625 81.0298 63.3875 82.2798 64.6875C83.5298 65.9875 85.3798 66.6375 87.8298 66.6375C88.5798 66.6375 89.3923 66.5625 90.2673 66.4125C91.1673 66.2625 92.0673 66.05 92.9673 65.775L91.6923 68.3625V61.95H89.0673C88.2173 61.95 87.5548 61.7375 87.0798 61.3125C86.6298 60.8875 86.4048 60.2875 86.4048 59.5125C86.4048 58.7375 86.6298 58.15 87.0798 57.75C87.5548 57.325 88.2173 57.1125 89.0673 57.1125H94.6173C95.4923 57.1125 96.1548 57.35 96.6048 57.825C97.0798 58.275 97.3173 58.9375 97.3173 59.8125V68.1C97.3173 68.85 97.1548 69.4875 96.8298 70.0125C96.5298 70.5375 96.0423 70.9125 95.3673 71.1375C94.1923 71.5375 92.9173 71.85 91.5423 72.075C90.1673 72.3 88.7923 72.4125 87.4173 72.4125Z" fill="#162A64"/>
</svg>
