<svg width="120" height="120" viewBox="0 0 120 120" fill="none" xmlns="http://www.w3.org/2000/svg">
<path fill-rule="evenodd" clip-rule="evenodd" d="M105 7.5H15C10.8579 7.5 7.5 10.8579 7.5 15V105C7.5 109.142 10.8579 112.5 15 112.5H105C109.142 112.5 112.5 109.142 112.5 105V15C112.5 10.8579 109.142 7.5 105 7.5ZM15 0C6.71573 0 0 6.71573 0 15V105C0 113.284 6.71573 120 15 120H105C113.284 120 120 113.284 120 105V15C120 6.71573 113.284 0 105 0H15Z" fill="#162A64"/>
<path d="M22.5 48C22.5 46.3431 23.8431 45 25.5 45H34.5C36.1569 45 37.5 46.3431 37.5 48V94.5C37.5 96.1569 36.1569 97.5 34.5 97.5H25.5C23.8431 97.5 22.5 96.1569 22.5 94.5V48Z" fill="#162A64"/>
<path d="M45 25.5C45 23.8431 46.3431 22.5 48 22.5H94.5C96.1569 22.5 97.5 23.8431 97.5 25.5V34.5C97.5 36.1569 96.1569 37.5 94.5 37.5H48C46.3431 37.5 45 36.1569 45 34.5V25.5Z" fill="#162A64"/>
<path d="M37.5 25.5C37.5 23.8431 36.1569 22.5 34.5 22.5H25.5C23.8431 22.5 22.5 23.8431 22.5 25.5V34.5C22.5 36.1569 23.8431 37.5 25.5 37.5H34.5C36.1569 37.5 37.5 36.1569 37.5 34.5V25.5Z" fill="#162A64"/>
<path d="M57.4399 77.5607C58.3849 76.6157 60.0006 77.285 60.0006 78.6213V84C60.0006 84.8284 60.6722 85.5 61.5006 85.5H84C84.8284 85.5 85.5 84.8284 85.5 84V61.5C85.5 60.6716 84.8284 60 84 60H78.6214C77.285 60 76.6158 58.3843 77.5608 57.4393L88.9399 46.0606C89.5257 45.4749 90.4755 45.4749 91.0612 46.0607L102.439 57.4394C103.384 58.3843 102.715 60 101.379 60H96C95.1716 60 94.5 60.6716 94.5 61.5V93C94.5 93.8284 93.8284 94.5 93 94.5H61.5006C60.6722 94.5 60.0006 95.1716 60.0006 96V101.379C60.0006 102.715 58.3849 103.384 57.44 102.44L46.0607 91.0613C45.4749 90.4755 45.4749 89.5257 46.0607 88.9399L57.4399 77.5607Z" fill="#162A64"/>
</svg>
