<svg width="120" height="120" viewBox="0 0 120 120" fill="none" xmlns="http://www.w3.org/2000/svg">
<path fill-rule="evenodd" clip-rule="evenodd" d="M105 7.5H15C10.8579 7.5 7.5 10.8579 7.5 15V105C7.5 109.142 10.8579 112.5 15 112.5H105C109.142 112.5 112.5 109.142 112.5 105V15C112.5 10.8579 109.142 7.5 105 7.5ZM15 0C6.71573 0 0 6.71573 0 15V105C0 113.284 6.71573 120 15 120H105C113.284 120 120 113.284 120 105V15C120 6.71573 113.284 0 105 0H15Z" fill="#162A64"/>
<path d="M39.9389 66.162C39.4109 66.162 39.0029 66.018 38.7149 65.73C38.4269 65.43 38.2829 65.01 38.2829 64.47V54.84C38.2829 54.288 38.4269 53.868 38.7149 53.58C39.0029 53.292 39.4109 53.148 39.9389 53.148C40.4789 53.148 40.8869 53.292 41.1629 53.58C41.4509 53.868 41.5949 54.288 41.5949 54.84V64.47C41.5949 65.01 41.4569 65.43 41.1809 65.73C40.9049 66.018 40.4909 66.162 39.9389 66.162Z" fill="#162A64"/>
<path d="M50.2983 66.198C48.8943 66.198 47.6883 65.928 46.6803 65.388C45.6723 64.848 44.8983 64.086 44.3583 63.102C43.8303 62.118 43.5663 60.966 43.5663 59.646C43.5663 58.662 43.7163 57.768 44.0163 56.964C44.3283 56.16 44.7723 55.47 45.3483 54.894C45.9363 54.318 46.6443 53.88 47.4723 53.58C48.3123 53.268 49.2543 53.112 50.2983 53.112C50.8503 53.112 51.4203 53.178 52.0083 53.31C52.6083 53.43 53.1363 53.616 53.5923 53.868C53.9283 54.048 54.1623 54.276 54.2943 54.552C54.4263 54.828 54.4683 55.11 54.4203 55.398C54.3843 55.686 54.2823 55.944 54.1143 56.172C53.9463 56.4 53.7303 56.556 53.4663 56.64C53.2023 56.712 52.9143 56.67 52.6023 56.514C52.2423 56.346 51.8823 56.22 51.5223 56.136C51.1743 56.04 50.8083 55.992 50.4243 55.992C49.6803 55.992 49.0563 56.136 48.5523 56.424C48.0603 56.7 47.6883 57.108 47.4363 57.648C47.1843 58.188 47.0583 58.854 47.0583 59.646C47.0583 60.438 47.1843 61.11 47.4363 61.662C47.6883 62.202 48.0603 62.616 48.5523 62.904C49.0563 63.18 49.6803 63.318 50.4243 63.318C50.7363 63.318 51.0723 63.282 51.4323 63.21C51.7923 63.126 52.1463 63 52.4943 62.832C52.8543 62.676 53.1723 62.634 53.4483 62.706C53.7363 62.778 53.9643 62.922 54.1323 63.138C54.3123 63.354 54.4263 63.606 54.4743 63.894C54.5223 64.17 54.4803 64.446 54.3483 64.722C54.2283 64.998 54.0123 65.22 53.7003 65.388C53.2803 65.64 52.7583 65.838 52.1343 65.982C51.5223 66.126 50.9103 66.198 50.2983 66.198Z" fill="#162A64"/>
<path d="M61.981 66.198C60.697 66.198 59.569 65.928 58.597 65.388C57.625 64.836 56.869 64.068 56.329 63.084C55.801 62.1 55.537 60.954 55.537 59.646C55.537 58.662 55.687 57.768 55.987 56.964C56.299 56.16 56.737 55.47 57.301 54.894C57.877 54.318 58.561 53.88 59.353 53.58C60.145 53.268 61.021 53.112 61.981 53.112C63.265 53.112 64.387 53.382 65.347 53.922C66.319 54.462 67.075 55.224 67.615 56.208C68.155 57.18 68.425 58.326 68.425 59.646C68.425 60.63 68.269 61.524 67.957 62.328C67.657 63.132 67.219 63.828 66.643 64.416C66.079 64.992 65.401 65.436 64.609 65.748C63.817 66.048 62.941 66.198 61.981 66.198ZM61.981 63.426C62.617 63.426 63.157 63.276 63.601 62.976C64.045 62.676 64.387 62.244 64.627 61.68C64.867 61.116 64.987 60.438 64.987 59.646C64.987 58.458 64.723 57.534 64.195 56.874C63.667 56.214 62.929 55.884 61.981 55.884C61.357 55.884 60.817 56.034 60.361 56.334C59.917 56.622 59.575 57.048 59.335 57.612C59.095 58.164 58.975 58.842 58.975 59.646C58.975 60.834 59.239 61.764 59.767 62.436C60.295 63.096 61.033 63.426 61.981 63.426Z" fill="#162A64"/>
<path d="M71.9285 66.162C71.4245 66.162 71.0405 66.03 70.7765 65.766C70.5125 65.502 70.3805 65.112 70.3805 64.596V54.786C70.3805 54.258 70.5125 53.856 70.7765 53.58C71.0405 53.292 71.3885 53.148 71.8205 53.148C72.2045 53.148 72.5045 53.22 72.7205 53.364C72.9365 53.508 73.1765 53.748 73.4405 54.084L79.1465 61.212H78.6425V54.696C78.6425 54.192 78.7685 53.808 79.0205 53.544C79.2845 53.28 79.6685 53.148 80.1725 53.148C80.6765 53.148 81.0545 53.28 81.3065 53.544C81.5705 53.808 81.7025 54.192 81.7025 54.696V64.668C81.7025 65.124 81.5825 65.49 81.3425 65.766C81.1025 66.03 80.7785 66.162 80.3705 66.162C79.9625 66.162 79.6385 66.09 79.3985 65.946C79.1705 65.79 78.9245 65.55 78.6605 65.226L72.9545 58.08H73.4585V64.596C73.4585 65.112 73.3265 65.502 73.0625 65.766C72.8105 66.03 72.4325 66.162 71.9285 66.162Z" fill="#162A64"/>
<path d="M22.5 43.5C22.5 42.6716 23.1716 42 24 42H96C96.8284 42 97.5 42.6716 97.5 43.5C97.5 44.3284 96.8284 45 96 45H24C23.1716 45 22.5 44.3284 22.5 43.5Z" fill="#162A64"/>
<path d="M22.5 76.5C22.5 75.6716 23.1716 75 24 75H96C96.8284 75 97.5 75.6716 97.5 76.5C97.5 77.3284 96.8284 78 96 78H24C23.1716 78 22.5 77.3284 22.5 76.5Z" fill="#162A64"/>
</svg>
