<svg width="120" height="120" viewBox="0 0 120 120" fill="none" xmlns="http://www.w3.org/2000/svg">
<path fill-rule="evenodd" clip-rule="evenodd" d="M105 7.5H15C10.8579 7.5 7.5 10.8579 7.5 15V105C7.5 109.142 10.8579 112.5 15 112.5H105C109.142 112.5 112.5 109.142 112.5 105V15C112.5 10.8579 109.142 7.5 105 7.5ZM15 0C6.71573 0 0 6.71573 0 15V105C0 113.284 6.71573 120 15 120H105C113.284 120 120 113.284 120 105V15C120 6.71573 113.284 0 105 0H15Z" fill="#606060"/>
<path d="M22.5 81C22.5 77.6863 25.1863 75 28.5 75H76.5C79.8137 75 82.5 77.6863 82.5 81V84C82.5 87.3137 79.8137 90 76.5 90H28.5C25.1863 90 22.5 87.3137 22.5 84V81Z" fill="#606060"/>
<path d="M22.5 58.5C22.5 55.1863 25.1863 52.5 28.5 52.5H91.5C94.8137 52.5 97.5 55.1863 97.5 58.5V61.5C97.5 64.8137 94.8137 67.5 91.5 67.5H28.5C25.1863 67.5 22.5 64.8137 22.5 61.5V58.5Z" fill="#606060"/>
<path d="M43.5 36C43.5 32.6863 46.1863 30 49.5 30H91.5C94.8137 30 97.5 32.6863 97.5 36V39C97.5 42.3137 94.8137 45 91.5 45H49.5C46.1863 45 43.5 42.3137 43.5 39V36Z" fill="#606060"/>
<path d="M24.0287 45.189C23.5947 45.189 23.2307 45.091 22.9367 44.895C22.6427 44.685 22.4607 44.405 22.3907 44.055C22.3207 43.691 22.3837 43.285 22.5797 42.837L27.8087 31.581C28.0607 31.035 28.3687 30.636 28.7327 30.384C29.1107 30.132 29.5377 30.006 30.0137 30.006C30.4897 30.006 30.9027 30.132 31.2527 30.384C31.6167 30.636 31.9317 31.035 32.1977 31.581L37.4267 42.837C37.6507 43.285 37.7277 43.691 37.6577 44.055C37.6017 44.419 37.4267 44.699 37.1327 44.895C36.8527 45.091 36.5027 45.189 36.0827 45.189C35.5227 45.189 35.0887 45.063 34.7807 44.811C34.4867 44.559 34.2207 44.153 33.9827 43.593L32.8487 40.926L34.3187 41.997H25.6667L27.1577 40.926L26.0237 43.593C25.7717 44.153 25.5127 44.559 25.2467 44.811C24.9807 45.063 24.5747 45.189 24.0287 45.189ZM29.9717 34.227L27.5357 40.044L26.9477 39.036H33.0587L32.4707 40.044L30.0137 34.227H29.9717Z" fill="#606060"/>
</svg>
