<svg width="120" height="120" viewBox="0 0 120 120" fill="none" xmlns="http://www.w3.org/2000/svg">
<path fill-rule="evenodd" clip-rule="evenodd" d="M105 7.5H15C10.8579 7.5 7.5 10.8579 7.5 15V105C7.5 109.142 10.8579 112.5 15 112.5H105C109.142 112.5 112.5 109.142 112.5 105V15C112.5 10.8579 109.142 7.5 105 7.5ZM15 0C6.71573 0 0 6.71573 0 15V105C0 113.284 6.71573 120 15 120H105C113.284 120 120 113.284 120 105V15C120 6.71573 113.284 0 105 0H15Z" fill="#162A64"/>
<path d="M22.5 88.5C22.5 85.1863 25.1863 82.5 28.5 82.5H76.5C79.8137 82.5 82.5 85.1863 82.5 88.5V91.5C82.5 94.8137 79.8137 97.5 76.5 97.5H28.5C25.1863 97.5 22.5 94.8137 22.5 91.5V88.5Z" fill="#162A64"/>
<path d="M43.5 66C43.5 62.6863 46.1863 60 49.5 60H91.5C94.8137 60 97.5 62.6863 97.5 66V69C97.5 72.3137 94.8137 75 91.5 75H49.5C46.1863 75 43.5 72.3137 43.5 69V66Z" fill="#162A64"/>
<path d="M22.5 39C22.5 38.1716 23.1716 37.5 24 37.5H29.5458C29.842 37.5 30.1315 37.4123 30.3779 37.2481L40.5257 30.4829C40.9736 30.1843 41.5471 30.1486 42.0286 30.3893L55.3916 37.0708C55.9149 37.3324 56.5426 37.2659 56.9994 36.9004L74.1435 23.1852C74.6536 22.7771 75.3691 22.7461 75.9126 23.1084L96.8321 37.0547C97.2494 37.3329 97.5 37.8012 97.5 38.3028V46.5C97.5 49.8137 94.8137 52.5 91.5 52.5H28.5C25.1863 52.5 22.5 49.8137 22.5 46.5V39Z" fill="#162A64"/>
<path d="M30 26.25C30 28.3211 28.3211 30 26.25 30C24.1789 30 22.5 28.3211 22.5 26.25C22.5 24.1789 24.1789 22.5 26.25 22.5C28.3211 22.5 30 24.1789 30 26.25Z" fill="#162A64"/>
<path d="M24.0287 75.189C23.5947 75.189 23.2307 75.091 22.9367 74.895C22.6427 74.685 22.4607 74.405 22.3907 74.055C22.3207 73.691 22.3837 73.285 22.5797 72.837L27.8087 61.581C28.0607 61.035 28.3687 60.636 28.7327 60.384C29.1107 60.132 29.5377 60.006 30.0137 60.006C30.4897 60.006 30.9027 60.132 31.2527 60.384C31.6167 60.636 31.9317 61.035 32.1977 61.581L37.4267 72.837C37.6507 73.285 37.7277 73.691 37.6577 74.055C37.6017 74.419 37.4267 74.699 37.1327 74.895C36.8527 75.091 36.5027 75.189 36.0827 75.189C35.5227 75.189 35.0887 75.063 34.7807 74.811C34.4867 74.559 34.2207 74.153 33.9827 73.593L32.8487 70.926L34.3187 71.997H25.6667L27.1577 70.926L26.0237 73.593C25.7717 74.153 25.5127 74.559 25.2467 74.811C24.9807 75.063 24.5747 75.189 24.0287 75.189ZM29.9717 64.227L27.5357 70.044L26.9477 69.036H33.0587L32.4707 70.044L30.0137 64.227H29.9717Z" fill="#162A64"/>
</svg>
