<svg width="120" height="120" viewBox="0 0 120 120" fill="none" xmlns="http://www.w3.org/2000/svg">
<path fill-rule="evenodd" clip-rule="evenodd" d="M105 7.5H15C10.8579 7.5 7.5 10.8579 7.5 15V105C7.5 109.142 10.8579 112.5 15 112.5H105C109.142 112.5 112.5 109.142 112.5 105V15C112.5 10.8579 109.142 7.5 105 7.5ZM15 0C6.71573 0 0 6.71573 0 15V105C0 113.284 6.71573 120 15 120H105C113.284 120 120 113.284 120 105V15C120 6.71573 113.284 0 105 0H15Z" fill="#162A64"/>
<path d="M78.75 56.1029C81.75 57.8349 81.75 62.1651 78.75 63.8971L47.25 82.0836C44.25 83.8157 40.5 81.6506 40.5 78.1865L40.5 41.8135C40.5 38.3494 44.25 36.1843 47.25 37.9164L78.75 56.1029Z" fill="#162A64"/>
</svg>
