<svg width="120" height="120" viewBox="0 0 120 120" fill="none" xmlns="http://www.w3.org/2000/svg">
<path fill-rule="evenodd" clip-rule="evenodd" d="M105 7.5H15C10.8579 7.5 7.5 10.8579 7.5 15V105C7.5 109.142 10.8579 112.5 15 112.5H105C109.142 112.5 112.5 109.142 112.5 105V15C112.5 10.8579 109.142 7.5 105 7.5ZM15 0C6.71573 0 0 6.71573 0 15V105C0 113.284 6.71573 120 15 120H105C113.284 120 120 113.284 120 105V15C120 6.71573 113.284 0 105 0H15Z" fill="#162A64"/>
<path fill-rule="evenodd" clip-rule="evenodd" d="M72.8493 32.89C69.3438 31.2286 65.5539 30.2648 61.6902 30.0469C60.8631 30.0002 60.1953 29.3283 60.2006 28.4999L60.2291 24C60.2344 23.1716 60.9105 22.5011 61.7381 22.5395C66.6971 22.7695 71.5664 23.9822 76.0614 26.1127C81.0087 28.4575 85.3826 31.8571 88.8758 36.0728C92.3689 40.2885 94.8967 45.2179 96.2814 50.5147C97.6661 55.8115 97.8742 61.3473 96.891 66.7332C95.9079 72.119 93.7574 77.2243 90.5906 81.6903C87.4238 86.1563 83.3175 89.8748 78.5602 92.5844C73.8029 95.294 68.51 96.9291 63.0533 97.3748C58.0955 97.7797 53.1118 97.1939 48.3913 95.657C47.6035 95.4005 47.2079 94.5344 47.4957 93.7576L49.0588 89.5378C49.3465 88.761 50.2086 88.3683 50.9989 88.6169C54.6904 89.778 58.5764 90.2155 62.4428 89.8997C66.8081 89.5431 71.0424 88.2351 74.8483 86.0674C78.6541 83.8997 81.9392 80.9249 84.4726 77.3521C87.0061 73.7793 88.7265 69.6951 89.513 65.3864C90.2995 61.0777 90.133 56.6491 89.0252 52.4116C87.9175 48.1741 85.8953 44.2306 83.1007 40.8581C80.3062 37.4856 76.8071 34.7658 72.8493 32.89Z" fill="#162A64"/>
<path fill-rule="evenodd" clip-rule="evenodd" d="M54.3529 29.0093C54.5013 29.8243 53.9599 30.6016 53.1533 30.7906C49.8368 31.5678 46.6767 32.9043 43.8089 34.7425C43.1115 35.1895 42.1766 35.0366 41.6953 34.3624L39.0806 30.6999C38.5992 30.0257 38.754 29.0862 39.4469 28.6322C43.2192 26.1606 47.4066 24.3897 51.8076 23.4047C52.616 23.2238 53.3979 23.7671 53.5464 24.5822L54.3529 29.0093Z" fill="#162A64"/>
<path fill-rule="evenodd" clip-rule="evenodd" d="M36.5688 38.9443C37.185 39.498 37.2324 40.4441 36.7101 41.0872C34.5626 43.7313 32.8811 46.7221 31.7377 49.9308C31.4597 50.7112 30.6267 51.1623 29.8334 50.9236L25.5243 49.6269C24.731 49.3882 24.2785 48.5505 24.5487 47.7673C26.0199 43.5042 28.2481 39.5412 31.1261 36.069C31.6548 35.4312 32.6057 35.3825 33.2219 35.9363L36.5688 38.9443Z" fill="#162A64"/>
<path fill-rule="evenodd" clip-rule="evenodd" d="M28.5877 57.6524C29.4138 57.7142 30.0295 58.4341 30.0091 59.2623C29.9252 62.6676 30.4219 66.0625 31.4779 69.3011C31.7347 70.0887 31.3511 70.9548 30.5773 71.2507L26.374 72.8578C25.6003 73.1536 24.7301 72.767 24.4654 71.982C23.0245 67.7085 22.3663 63.2099 22.5225 58.7028C22.5512 57.8748 23.2741 57.2552 24.1002 57.3169L28.5877 57.6524Z" fill="#162A64"/>
<path fill-rule="evenodd" clip-rule="evenodd" d="M33.3378 76.7775C34.039 76.3362 34.962 76.5494 35.4377 77.2276C37.3939 80.0162 39.8108 82.4515 42.5846 84.4287C43.2592 84.9095 43.4654 85.8341 43.0188 86.5319L40.5933 90.3222C40.1467 91.02 39.2171 91.2262 38.5378 90.7521C34.8394 88.1713 31.6367 84.9443 29.0839 81.2265C28.615 80.5435 28.8281 79.6155 29.5293 79.1743L33.3378 76.7775Z" fill="#162A64"/>
<path d="M62.7264 71.7358C62.7256 71.7369 62.7253 71.7382 62.7255 71.7394V71.7394V71.7394C62.7257 71.7407 62.7254 71.742 62.7246 71.7431L59.2097 76.6014C58.7241 77.2726 57.7863 77.4231 57.1152 76.9375L41.3164 65.5073C40.6452 65.0217 40.4947 64.084 40.9803 63.4128L43.6181 59.7669C44.1036 59.0957 45.0414 58.9453 45.7126 59.4309L55.4326 66.4631C56.1038 66.9487 57.0416 66.7983 57.5271 66.1271L73.3534 44.2521C73.839 43.5809 74.7767 43.4304 75.4479 43.916L79.0938 46.5537C79.765 47.0393 79.9154 47.9771 79.4298 48.6483L62.7264 71.7358Z" fill="#162A64"/>
</svg>
