<svg width="120" height="120" viewBox="0 0 120 120" fill="none" xmlns="http://www.w3.org/2000/svg">
<path fill-rule="evenodd" clip-rule="evenodd" d="M105 7.5H15C10.8579 7.5 7.5 10.8579 7.5 15V105C7.5 109.142 10.8579 112.5 15 112.5H105C109.142 112.5 112.5 109.142 112.5 105V15C112.5 10.8579 109.142 7.5 105 7.5ZM15 0C6.71573 0 0 6.71573 0 15V105C0 113.284 6.71573 120 15 120H105C113.284 120 120 113.284 120 105V15C120 6.71573 113.284 0 105 0H15Z" fill="#162A64"/>
<path d="M22.5 49.5C22.5 47.0147 24.5147 45 27 45H33C35.4853 45 37.5 47.0147 37.5 49.5V93C37.5 95.4853 35.4853 97.5 33 97.5H27C24.5147 97.5 22.5 95.4853 22.5 93V49.5Z" fill="#162A64"/>
<path d="M52.5 27C52.5 24.5147 54.5147 22.5 57 22.5H63C65.4853 22.5 67.5 24.5147 67.5 27V93C67.5 95.4853 65.4853 97.5 63 97.5H57C54.5147 97.5 52.5 95.4853 52.5 93V27Z" fill="#162A64"/>
<path d="M82.5 72C82.5 69.5147 84.5147 67.5 87 67.5H93C95.4853 67.5 97.5 69.5147 97.5 72V93C97.5 95.4853 95.4853 97.5 93 97.5H87C84.5147 97.5 82.5 95.4853 82.5 93V72Z" fill="#162A64"/>
</svg>
