<svg width="120" height="120" viewBox="0 0 120 120" fill="none" xmlns="http://www.w3.org/2000/svg">
<path fill-rule="evenodd" clip-rule="evenodd" d="M105 7.5H15C10.8579 7.5 7.5 10.8579 7.5 15V105C7.5 109.142 10.8579 112.5 15 112.5H105C109.142 112.5 112.5 109.142 112.5 105V15C112.5 10.8579 109.142 7.5 105 7.5ZM15 0C6.71573 0 0 6.71573 0 15V105C0 113.284 6.71573 120 15 120H105C113.284 120 120 113.284 120 105V15C120 6.71573 113.284 0 105 0H15Z" fill="#162A64"/>
<path d="M46.8924 66.198C46.4124 66.198 45.9084 66.162 45.3804 66.09C44.8644 66.03 44.3724 65.934 43.9044 65.802C43.4364 65.67 43.0164 65.514 42.6444 65.334C42.3204 65.178 42.0924 64.974 41.9604 64.722C41.8284 64.458 41.7804 64.182 41.8164 63.894C41.8524 63.606 41.9544 63.354 42.1224 63.138C42.2904 62.91 42.5124 62.76 42.7884 62.688C43.0644 62.604 43.3764 62.64 43.7244 62.796C44.1804 63.012 44.6964 63.18 45.2724 63.3C45.8484 63.42 46.3884 63.48 46.8924 63.48C47.6844 63.48 48.2364 63.378 48.5484 63.174C48.8724 62.958 49.0344 62.694 49.0344 62.382C49.0344 62.106 48.9204 61.884 48.6924 61.716C48.4764 61.548 48.0864 61.404 47.5224 61.284L45.4164 60.834C44.2644 60.594 43.4064 60.174 42.8424 59.574C42.2784 58.974 41.9964 58.2 41.9964 57.252C41.9964 56.628 42.1224 56.064 42.3744 55.56C42.6384 55.044 43.0044 54.606 43.4724 54.246C43.9524 53.886 44.5164 53.61 45.1644 53.418C45.8244 53.214 46.5564 53.112 47.3604 53.112C47.9844 53.112 48.6144 53.184 49.2504 53.328C49.8984 53.46 50.4564 53.664 50.9244 53.94C51.2004 54.084 51.3984 54.282 51.5184 54.534C51.6384 54.786 51.6864 55.05 51.6624 55.326C51.6384 55.59 51.5424 55.824 51.3744 56.028C51.2184 56.232 51.0024 56.37 50.7264 56.442C50.4624 56.502 50.1444 56.454 49.7724 56.298C49.4244 56.142 49.0284 56.028 48.5844 55.956C48.1524 55.872 47.7324 55.83 47.3244 55.83C46.8804 55.83 46.5024 55.884 46.1904 55.992C45.8784 56.088 45.6384 56.232 45.4704 56.424C45.3144 56.616 45.2364 56.838 45.2364 57.09C45.2364 57.342 45.3384 57.558 45.5424 57.738C45.7584 57.906 46.1484 58.05 46.7124 58.17L48.8004 58.62C49.9644 58.872 50.8344 59.286 51.4104 59.862C51.9864 60.438 52.2744 61.188 52.2744 62.112C52.2744 62.736 52.1484 63.3 51.8964 63.804C51.6444 64.308 51.2844 64.74 50.8164 65.1C50.3484 65.448 49.7844 65.718 49.1244 65.91C48.4644 66.102 47.7204 66.198 46.8924 66.198Z" fill="#162A64"/>
<path d="M59.1989 66.162C58.7429 66.162 58.3709 66.066 58.0829 65.874C57.8069 65.682 57.5729 65.376 57.3809 64.956L53.0249 55.344C52.8329 54.924 52.7729 54.546 52.8449 54.21C52.9169 53.874 53.0849 53.616 53.3489 53.436C53.6129 53.244 53.9429 53.148 54.3389 53.148C54.8309 53.148 55.1969 53.256 55.4369 53.472C55.6889 53.688 55.9049 54.006 56.0849 54.426L59.7569 62.922H58.7489L62.4209 54.408C62.6009 53.988 62.8169 53.676 63.0689 53.472C63.3209 53.256 63.6749 53.148 64.1309 53.148C64.5029 53.148 64.8149 53.244 65.0669 53.436C65.3189 53.616 65.4749 53.874 65.5349 54.21C65.6069 54.546 65.5469 54.924 65.3549 55.344L60.9809 64.956C60.8009 65.376 60.5729 65.682 60.2969 65.874C60.0209 66.066 59.6549 66.162 59.1989 66.162Z" fill="#162A64"/>
<path d="M73.1603 66.198C71.7083 66.198 70.4723 65.928 69.4523 65.388C68.4443 64.848 67.6763 64.092 67.1483 63.12C66.6203 62.148 66.3563 61.014 66.3563 59.718C66.3563 58.71 66.5123 57.804 66.8243 57C67.1483 56.184 67.6103 55.488 68.2103 54.912C68.8103 54.324 69.5423 53.88 70.4063 53.58C71.2823 53.268 72.2723 53.112 73.3763 53.112C73.9763 53.112 74.5883 53.172 75.2123 53.292C75.8363 53.4 76.4483 53.61 77.0483 53.922C77.3603 54.066 77.5703 54.27 77.6783 54.534C77.7983 54.786 77.8343 55.056 77.7863 55.344C77.7503 55.62 77.6483 55.878 77.4803 56.118C77.3243 56.346 77.1083 56.502 76.8323 56.586C76.5563 56.658 76.2443 56.616 75.8963 56.46C75.5363 56.292 75.1463 56.166 74.7263 56.082C74.3063 55.986 73.8623 55.938 73.3943 55.938C72.5903 55.938 71.9183 56.082 71.3783 56.37C70.8503 56.658 70.4543 57.084 70.1903 57.648C69.9263 58.212 69.7943 58.902 69.7943 59.718C69.7943 60.942 70.0943 61.866 70.6943 62.49C71.2943 63.114 72.1823 63.426 73.3583 63.426C73.7183 63.426 74.1083 63.39 74.5283 63.318C74.9603 63.246 75.3923 63.144 75.8243 63.012L75.2123 64.254V61.176H73.9523C73.5443 61.176 73.2263 61.074 72.9983 60.87C72.7823 60.666 72.6743 60.378 72.6743 60.006C72.6743 59.634 72.7823 59.352 72.9983 59.16C73.2263 58.956 73.5443 58.854 73.9523 58.854H76.6163C77.0363 58.854 77.3543 58.968 77.5703 59.196C77.7983 59.412 77.9123 59.73 77.9123 60.15V64.128C77.9123 64.488 77.8343 64.794 77.6783 65.046C77.5343 65.298 77.3003 65.478 76.9763 65.586C76.4123 65.778 75.8003 65.928 75.1403 66.036C74.4803 66.144 73.8203 66.198 73.1603 66.198Z" fill="#162A64"/>
<path d="M30 30C30 25.8579 33.3579 22.5 37.5 22.5H82.5C86.6421 22.5 90 25.8579 90 30V36C90 36.8284 90.6716 37.5 91.5 37.5H94.5C95.7361 37.5 96.4416 38.9111 95.7 39.9L87.45 50.9C86.85 51.7 85.65 51.7 85.05 50.9L76.8 39.9C76.0584 38.9111 76.7639 37.5 78 37.5H81.25C81.9404 37.5 82.5 36.9404 82.5 36.25C82.5 32.7982 79.7018 30 76.25 30H45C40.8579 30 37.5 33.3579 37.5 37.5V43.5C37.5 44.3284 36.8284 45 36 45H31.5C30.6716 45 30 44.3284 30 43.5V30Z" fill="#162A64"/>
<path d="M90 90C90 94.1421 86.6421 97.5 82.5 97.5H37.5C33.3579 97.5 30 94.1421 30 90V84C30 83.1716 29.3284 82.5 28.5 82.5H25.5C24.2639 82.5 23.5584 81.0889 24.3 80.1L32.55 69.1C33.15 68.3 34.35 68.3 34.95 69.1L43.2 80.1C43.9416 81.0889 43.2361 82.5 42 82.5H38.75C38.0596 82.5 37.5 83.0596 37.5 83.75C37.5 87.2018 40.2982 90 43.75 90H75C79.1421 90 82.5 86.6421 82.5 82.5V76.5C82.5 75.6716 83.1716 75 84 75H88.5C89.3284 75 90 75.6716 90 76.5V90Z" fill="#162A64"/>
</svg>
